<?xml version="1.0" encoding="UTF-8" standalone="no"?><svg xmlns="http://www.w3.org/2000/svg" xmlns:xlink="http://www.w3.org/1999/xlink" fill="#ffffff" height="121.7" preserveAspectRatio="xMidYMid meet" version="1" viewBox="8.8 9.0 121.7 121.7" width="121.7" zoomAndPan="magnify"><g id="change1_1"><path d="M69.5,66.915l29.427-18.349c-0.319-0.051-0.644-0.084-0.977-0.084h-56.9c-0.333,0-0.658,0.034-0.977,0.084L69.5,66.915z" fill="inherit"/></g><g id="change1_2"><path d="M71.352,74.01c-0.039,0.024-0.082,0.041-0.123,0.064c-0.043,0.023-0.088,0.047-0.131,0.068 c-0.231,0.119-0.47,0.215-0.713,0.278c-0.025,0.007-0.05,0.011-0.074,0.017c-0.268,0.063-0.538,0.102-0.808,0.102 c-0.001,0-0.002,0-0.003,0s-0.002,0-0.003,0c-0.27,0-0.54-0.038-0.807-0.102c-0.025-0.006-0.05-0.01-0.075-0.017 c-0.243-0.063-0.48-0.159-0.712-0.278c-0.044-0.021-0.088-0.045-0.131-0.068c-0.041-0.023-0.084-0.04-0.124-0.064L34.949,53.62 c-0.059,0.345-0.097,0.697-0.097,1.059V87.4c0,3.422,2.774,6.197,6.197,6.197h56.9c3.423,0,6.197-2.775,6.197-6.197V54.679 c0-0.362-0.037-0.714-0.098-1.059L71.352,74.01z" fill="inherit"/></g><g id="change1_3"><path d="M69.664,130.665c-33.543,0-60.833-27.29-60.833-60.835c0-33.544,27.29-60.834,60.833-60.834 c33.545,0,60.836,27.29,60.836,60.834C130.5,103.375,103.209,130.665,69.664,130.665z M69.664,14.996 c-30.235,0-54.833,24.599-54.833,54.834c0,30.236,24.598,54.835,54.833,54.835c30.236,0,54.836-24.599,54.836-54.835 C124.5,39.595,99.9,14.996,69.664,14.996z" fill="inherit"/></g></svg>