<?xml version="1.0" encoding="UTF-8" standalone="no"?><svg xmlns="http://www.w3.org/2000/svg" xmlns:xlink="http://www.w3.org/1999/xlink" fill="#f6f6f6" height="468.4" preserveAspectRatio="xMidYMid meet" version="1" viewBox="22.4 21.8 467.1 468.4" width="467.1" zoomAndPan="magnify"><g id="change1_1"><path d="M22.77,255.94c0-65.83,0.32-131.66-0.19-197.49C22.42,38.5,37.63,21.87,59.56,21.89c127.83,0.14,255.65,0.09,383.48,0.13 c5.49,0,11.03-0.18,16.45,0.51c19.74,2.53,29.92,19.21,29.89,36.46c-0.13,88.83-0.05,177.66-0.05,266.49c0,42-0.12,84,0.09,125.99 c0.06,11.44-3.16,21.33-11.28,29.35c-6.49,6.42-14.93,8.44-23.7,9.09c-4.48,0.33-8.99,0.12-13.49,0.12 c-124.83,0-249.66-0.01-374.48,0.02c-9.38,0-18.56-0.11-27.03-5.29c-10.01-6.12-15.63-14.81-16.45-26.36 c-0.52-7.3-0.21-14.66-0.21-21.99C22.77,376.27,22.77,316.11,22.77,255.94z M90.06,256.05c-0.01,0-0.01,0-0.02,0 c0,52.16,0,104.33,0,156.49c0,1.67-0.5,3.62,0.2,4.93c0.94,1.76,2.59,3.49,4.36,4.37c1.49,0.74,3.59,0.31,5.42,0.31 c103.99,0.02,207.98,0.03,311.98,0.04c1.33,0,2.67,0.01,4-0.06c3.74-0.21,5.89-2.01,5.87-5.95c-0.01-1.67,0.05-3.33,0.05-5 c0.02-104.66,0.03-209.32,0.05-313.98c0-5.68-1.29-7.04-7-7.25c-2-0.07-4-0.03-6-0.03c-102.99,0-205.98,0.01-308.98,0 c-9.72,0-9.94,0.17-9.94,9.64C90.06,151.73,90.06,203.89,90.06,256.05z"/></g></svg>