<?xml version="1.0" encoding="UTF-8" standalone="no"?><svg xmlns="http://www.w3.org/2000/svg" xmlns:xlink="http://www.w3.org/1999/xlink" fill="#ffffff" height="473.1" preserveAspectRatio="xMidYMid meet" version="1" viewBox="14.5 16.9 481.0 473.1" width="481" zoomAndPan="magnify"><g id="change1_1"><path d="M254.99,489.72c-65.32,0-130.65,0.01-195.97-0.01c-28.8-0.01-44.52-26.27-31.37-52c15.59-30.54,30.93-61.2,46.36-91.83 c16.11-31.97,32.22-63.93,48.26-95.93c19.02-37.96,37.92-75.97,56.96-113.92c14.64-29.17,29.53-58.22,44.03-87.46 c4.18-8.43,8.09-16.6,16.73-21.7c16.95-10,39.02-3.57,47.66,14.15c11.51,23.61,23.16,47.16,34.77,70.73 c9.9,20.11,19.8,40.23,29.74,60.33c9.87,19.95,19.75,39.9,29.69,59.81c15.53,31.07,31.2,62.07,46.65,93.18 c16.8,33.82,33.41,67.73,50.1,101.61c2.57,5.22,5.42,10.33,7.61,15.71c9.28,22.7-5.24,45.72-29.77,47.17 c-7.48,0.44-14.99,0.26-22.49,0.26c-59.66,0.02-119.32,0.01-178.97,0.01C254.99,489.79,254.99,489.76,254.99,489.72z M256.91,133.18 c-1.68,2.61-2.49,3.64-3.07,4.79c-12.53,24.8-25.06,49.61-37.54,74.44c-18.01,35.86-35.97,71.74-53.96,107.6 c-15.83,31.56-31.68,63.12-47.49,94.7c-2.64,5.28-1.31,7.3,4.67,7.31c11.83,0,23.66-0.03,35.48-0.04 c79.32-0.04,158.65-0.07,237.97-0.1c5.44,0,7.01-2.39,4.63-7.15c-4.99-9.97-10-19.93-14.96-29.91 c-11.69-23.55-23.38-47.1-35.02-70.67c-16.8-34-33.52-68.05-50.33-102.04c-10.83-21.91-21.73-43.79-32.7-65.63 C262.47,142.22,259.84,138.22,256.91,133.18z"/></g></svg>